<?xml version="1.0" encoding="UTF-8" standalone="no"?>
<!DOCTYPE svg PUBLIC "-//W3C//DTD SVG 1.1//EN"
 "http://www.w3.org/Graphics/SVG/1.1/DTD/svg11.dtd">
<!-- Generated by graphviz version 2.48.0 (20210717.1556)
 -->
<!-- Title: AnyWeaver_join_point_hierarchy_join_point_hierarchy Pages: 1 -->
<svg width="152pt" height="64pt"
 viewBox="0.00 0.00 152.00 64.00" xmlns="http://www.w3.org/2000/svg" xmlns:xlink="http://www.w3.org/1999/xlink">
<g id="graph0" class="graph" transform="scale(1 1) rotate(0) translate(4 60)">
<title>AnyWeaver_join_point_hierarchy_join_point_hierarchy</title>
<polygon fill="white" stroke="transparent" points="-4,4 -4,-60 148,-60 148,4 -4,4"/>
<!-- any -->
<g id="node1" class="node">
<title>any</title>
<polygon fill="#b2dfee" stroke="#b2dfee" points="144,-56 90,-56 90,-37 144,-37 144,-56"/>
<text text-anchor="middle" x="117" y="-44" font-family="Times New Roman,serif" font-size="10.00">any</text>
</g>
<!-- joinpoint -->
<g id="node2" class="node">
<title>joinpoint</title>
<polygon fill="#b2dfee" stroke="#b2dfee" points="54,-37 0,-37 0,-18 54,-18 54,-37"/>
<text text-anchor="middle" x="27" y="-25" font-family="Times New Roman,serif" font-size="10.00">joinpoint</text>
</g>
<!-- any&#45;&gt;joinpoint -->
<g id="edge1" class="edge">
<title>any&#45;&gt;joinpoint</title>
<path fill="none" stroke="black" d="M89.6,-40.8C81.52,-39.06 72.49,-37.11 63.9,-35.25"/>
<polygon fill="black" stroke="black" points="64.59,-31.82 54.08,-33.13 63.12,-38.66 64.59,-31.82"/>
</g>
<!-- app -->
<g id="node3" class="node">
<title>app</title>
<polygon fill="#b2dfee" stroke="#b2dfee" points="144,-19 90,-19 90,0 144,0 144,-19"/>
<text text-anchor="middle" x="117" y="-7" font-family="Times New Roman,serif" font-size="10.00">app</text>
</g>
<!-- app&#45;&gt;joinpoint -->
<g id="edge2" class="edge">
<title>app&#45;&gt;joinpoint</title>
<path fill="none" stroke="black" d="M89.6,-14.9C81.52,-16.55 72.49,-18.4 63.9,-20.16"/>
<polygon fill="black" stroke="black" points="63.18,-16.73 54.08,-22.17 64.58,-23.59 63.18,-16.73"/>
</g>
</g>
</svg>
